<?xml version="1.0" encoding="UTF-8"?>
<!DOCTYPE svg PUBLIC "-//W3C//DTD SVG 1.1//EN" "http://www.w3.org/Graphics/SVG/1.1/DTD/svg11.dtd">
<svg xmlns="http://www.w3.org/2000/svg" version="1.1" width="512px" height="512px" style="shape-rendering:geometricPrecision; text-rendering:geometricPrecision; image-rendering:optimizeQuality; fill-rule:evenodd; clip-rule:evenodd" xmlns:xlink="http://www.w3.org/1999/xlink">
<g><path style="opacity:1" fill="#f6f6f6" d="M -0.5,-0.5 C 170.167,-0.5 340.833,-0.5 511.5,-0.5C 511.5,170.167 511.5,340.833 511.5,511.5C 340.833,511.5 170.167,511.5 -0.5,511.5C -0.5,340.833 -0.5,170.167 -0.5,-0.5 Z"/></g>
<g><path style="opacity:1" fill="#07322e" d="M 342.5,102.5 C 340.132,104.533 338.132,106.867 336.5,109.5C 336.167,109.5 335.833,109.5 335.5,109.5C 327.167,109.5 318.833,109.5 310.5,109.5C 310.5,114.167 310.5,118.833 310.5,123.5C 308.167,123.5 305.833,123.5 303.5,123.5C 303.5,124.5 303.5,125.5 303.5,126.5C 303.5,126.833 303.5,127.167 303.5,127.5C 302.207,129.364 302.207,131.364 303.5,133.5C 304.524,134.853 305.857,135.52 307.5,135.5C 306.696,141.635 303.363,145.635 297.5,147.5C 296.681,135.841 296.515,124.174 297,112.5C 300.983,101.188 308.983,95.1884 321,94.5C 329.42,94.3553 336.587,97.022 342.5,102.5 Z"/></g>
<g><path style="opacity:1" fill="#413637" d="M 344.5,104.5 C 342.348,106.985 339.681,108.651 336.5,109.5C 338.132,106.867 340.132,104.533 342.5,102.5C 343.79,101.942 344.623,100.942 345,99.5C 345.645,96.4411 346.478,93.4411 347.5,90.5C 348.914,95.6763 347.914,100.343 344.5,104.5 Z"/></g>
<g><path style="opacity:1" fill="#3e3033" d="M 335.5,109.5 C 328.163,111.969 320.496,112.969 312.5,112.5C 312.353,117.214 312.686,121.881 313.5,126.5C 310.115,125.372 306.781,125.372 303.5,126.5C 303.5,125.5 303.5,124.5 303.5,123.5C 305.833,123.5 308.167,123.5 310.5,123.5C 310.5,118.833 310.5,114.167 310.5,109.5C 318.833,109.5 327.167,109.5 335.5,109.5 Z"/></g>
<g><path style="opacity:1" fill="#3c2f2e" d="M 303.5,127.5 C 303.327,132.323 305.661,134.323 310.5,133.5C 308.903,142.268 304.07,148.601 296,152.5C 295.235,152.43 294.735,152.097 294.5,151.5C 296.229,150.764 297.229,149.43 297.5,147.5C 303.363,145.635 306.696,141.635 307.5,135.5C 305.857,135.52 304.524,134.853 303.5,133.5C 302.207,131.364 302.207,129.364 303.5,127.5 Z"/></g>
<g><path style="opacity:1" fill="#f8d0be" d="M 344.5,104.5 C 346.85,110.581 348.35,116.914 349,123.5C 349.5,135.162 349.667,146.829 349.5,158.5C 343.159,169.508 334.492,178.174 323.5,184.5C 312.178,179.178 303.845,170.845 298.5,159.5C 298.5,158.167 297.833,157.5 296.5,157.5C 296.5,156.167 296.5,154.833 296.5,153.5C 295.325,153.719 294.325,153.386 293.5,152.5C 293.624,151.893 293.957,151.56 294.5,151.5C 294.735,152.097 295.235,152.43 296,152.5C 304.07,148.601 308.903,142.268 310.5,133.5C 305.661,134.323 303.327,132.323 303.5,127.5C 303.5,127.167 303.5,126.833 303.5,126.5C 306.781,125.372 310.115,125.372 313.5,126.5C 312.686,121.881 312.353,117.214 312.5,112.5C 320.496,112.969 328.163,111.969 335.5,109.5C 335.833,109.5 336.167,109.5 336.5,109.5C 339.681,108.651 342.348,106.985 344.5,104.5 Z"/></g>
<g><path style="opacity:1" fill="#f4a48c" d="M 319.5,143.5 C 320.978,143.238 322.311,143.571 323.5,144.5C 325.553,148.526 328.887,150.526 333.5,150.5C 331.579,151.641 329.579,151.808 327.5,151C 323.681,149.68 321.015,147.18 319.5,143.5 Z"/></g>
<g><path style="opacity:1" fill="#513229" d="M 320.5,123.5 C 321.725,124.152 322.392,125.319 322.5,127C 322.167,128.167 321.833,129.333 321.5,130.5C 320.526,128.257 320.192,125.924 320.5,123.5 Z"/></g>
<g><path style="opacity:1" fill="#543730" d="M 336.5,122.5 C 337.748,123.334 338.415,124.667 338.5,126.5C 338.333,127.833 338.167,129.167 338,130.5C 336.625,128.063 336.125,125.397 336.5,122.5 Z"/></g>
<g><path style="opacity:1" fill="#067172" d="M 289.5,157.5 C 285.409,158.895 281.076,159.728 276.5,160C 273.602,160.436 271.269,161.603 269.5,163.5C 257.237,165.965 246.237,171.131 236.5,179C 217.856,196.79 202.523,216.956 190.5,239.5C 175.735,259.702 165.235,282.035 159,306.5C 156.996,322.187 162.496,334.354 175.5,343C 190.922,351.212 206.922,358.045 223.5,363.5C 227.45,377.176 224.117,389.01 213.5,399C 211.833,399.833 210.167,400.667 208.5,401.5C 198.04,371.873 177.706,352.707 147.5,344C 126.925,339.512 106.259,335.512 85.5,332C 56.2229,322.889 35.2229,304.389 22.5,276.5C 43.7541,280.702 63.7541,276.868 82.5,265C 89.576,260.594 96.076,255.428 102,249.5C 115.456,232.376 129.289,215.542 143.5,199C 177.272,169.014 216.938,154.514 262.5,155.5C 271.588,155.364 280.588,156.031 289.5,157.5 Z"/></g>
<g><path style="opacity:1" fill="#2c383b" d="M 289.5,157.5 C 291.833,157.5 294.167,157.5 296.5,157.5C 297.833,157.5 298.5,158.167 298.5,159.5C 288.863,160.747 279.197,162.08 269.5,163.5C 271.269,161.603 273.602,160.436 276.5,160C 281.076,159.728 285.409,158.895 289.5,157.5 Z"/></g>
<g><path style="opacity:1" fill="#b1d3d4" d="M 376.5,162.5 C 390.966,165.566 403.633,172.066 414.5,182C 431.094,199.404 445.094,218.571 456.5,239.5C 452.577,241.562 449.577,244.562 447.5,248.5C 445.205,249.136 443.539,250.469 442.5,252.5C 434.977,256.761 427.311,260.761 419.5,264.5C 415.217,265.492 410.884,265.826 406.5,265.5C 404.759,263.023 403.259,260.356 402,257.5C 401.5,278.164 401.333,298.831 401.5,319.5C 402.207,326.199 401.207,332.532 398.5,338.5C 393.362,339.91 388.362,341.577 383.5,343.5C 383.5,346.167 383.5,348.833 383.5,351.5C 384.833,351.5 386.167,351.5 387.5,351.5C 387.5,354.833 387.5,358.167 387.5,361.5C 388.833,361.5 390.167,361.5 391.5,361.5C 391.5,363.5 391.5,365.5 391.5,367.5C 394.833,368.167 398.167,368.833 401.5,369.5C 401.5,371.833 401.5,374.167 401.5,376.5C 349.488,380.319 297.488,380.319 245.5,376.5C 245.5,374.167 245.5,371.833 245.5,369.5C 248.932,369.243 252.266,368.576 255.5,367.5C 255.201,365.396 255.534,363.396 256.5,361.5C 260.533,359.054 261.199,356.054 258.5,352.5C 260.045,351.548 261.712,351.215 263.5,351.5C 263.5,348.833 263.5,346.167 263.5,343.5C 257.942,342.626 252.608,340.959 247.5,338.5C 247,337.5 246.5,336.5 246,335.5C 245.501,330.177 245.334,324.844 245.5,319.5C 246.113,313.729 245.446,308.396 243.5,303.5C 243.783,302.711 244.283,302.044 245,301.5C 245.667,287.167 245.667,272.833 245,258.5C 242.97,262.009 240.804,265.342 238.5,268.5C 238.5,267.5 238.5,266.5 238.5,265.5C 219.274,262.677 203.274,254.011 190.5,239.5C 202.523,216.956 217.856,196.79 236.5,179C 246.237,171.131 257.237,165.965 269.5,163.5C 282.246,176.039 297.58,183.539 315.5,186C 309.181,190.467 305.847,196.634 305.5,204.5C 315.916,203.588 322.083,197.921 324,187.5C 326.06,197.727 332.227,203.727 342.5,205.5C 343.686,194.011 338.686,187.177 327.5,185C 341.058,183.258 353.725,178.925 365.5,172C 369.949,169.716 373.616,166.549 376.5,162.5 Z"/></g>
<g><path style="opacity:1" fill="#0f7272" d="M 349.5,158.5 C 358.559,159.51 367.559,160.843 376.5,162.5C 373.616,166.549 369.949,169.716 365.5,172C 353.725,178.925 341.058,183.258 327.5,185C 338.686,187.177 343.686,194.011 342.5,205.5C 332.227,203.727 326.06,197.727 324,187.5C 322.083,197.921 315.916,203.588 305.5,204.5C 305.847,196.634 309.181,190.467 315.5,186C 297.58,183.539 282.246,176.039 269.5,163.5C 279.197,162.08 288.863,160.747 298.5,159.5C 303.845,170.845 312.178,179.178 323.5,184.5C 334.492,178.174 343.159,169.508 349.5,158.5 Z"/></g>
<g><path style="opacity:1" fill="#f8d0be" d="M 190.5,239.5 C 203.274,254.011 219.274,262.677 238.5,265.5C 238.5,266.5 238.5,267.5 238.5,268.5C 231.405,281.183 224.405,294.017 217.5,307C 221.251,311.446 225.918,314.612 231.5,316.5C 235.726,318.956 240.393,319.956 245.5,319.5C 245.334,324.844 245.501,330.177 246,335.5C 246.5,336.5 247,337.5 247.5,338.5C 252.608,340.959 257.942,342.626 263.5,343.5C 263.5,346.167 263.5,348.833 263.5,351.5C 261.712,351.215 260.045,351.548 258.5,352.5C 261.199,356.054 260.533,359.054 256.5,361.5C 255.534,363.396 255.201,365.396 255.5,367.5C 252.266,368.576 248.932,369.243 245.5,369.5C 239.918,368.256 234.251,367.256 228.5,366.5C 227.272,364.679 225.606,363.679 223.5,363.5C 206.922,358.045 190.922,351.212 175.5,343C 162.496,334.354 156.996,322.187 159,306.5C 165.235,282.035 175.735,259.702 190.5,239.5 Z"/></g>
<g><path style="opacity:1" fill="#f9d1bf" d="M 456.5,239.5 C 469.824,257.723 479.99,277.723 487,299.5C 492.162,321.003 484.996,336.837 465.5,347C 454.492,350.774 443.825,355.44 433.5,361C 422.959,364.574 412.292,367.407 401.5,369.5C 398.167,368.833 394.833,368.167 391.5,367.5C 391.5,365.5 391.5,363.5 391.5,361.5C 390.167,361.5 388.833,361.5 387.5,361.5C 387.5,358.167 387.5,354.833 387.5,351.5C 386.167,351.5 384.833,351.5 383.5,351.5C 383.5,348.833 383.5,346.167 383.5,343.5C 388.362,341.577 393.362,339.91 398.5,338.5C 401.207,332.532 402.207,326.199 401.5,319.5C 412.402,318.883 421.735,314.717 429.5,307C 425.932,299.366 422.266,291.866 418.5,284.5C 414.13,278.375 410.13,272.042 406.5,265.5C 410.884,265.826 415.217,265.492 419.5,264.5C 427.311,260.761 434.977,256.761 442.5,252.5C 443.539,250.469 445.205,249.136 447.5,248.5C 449.577,244.562 452.577,241.562 456.5,239.5 Z"/></g>
<g><path style="opacity:1" fill="#f7f6f5" d="M 406.5,265.5 C 410.13,272.042 414.13,278.375 418.5,284.5C 422.266,291.866 425.932,299.366 429.5,307C 421.735,314.717 412.402,318.883 401.5,319.5C 401.333,298.831 401.5,278.164 402,257.5C 403.259,260.356 404.759,263.023 406.5,265.5 Z"/></g>
<g><path style="opacity:1" fill="#0b7171" d="M 243.5,303.5 C 239.817,307.025 236.65,311.025 234,315.5C 233.329,316.252 232.496,316.586 231.5,316.5C 225.918,314.612 221.251,311.446 217.5,307C 224.405,294.017 231.405,281.183 238.5,268.5C 240.804,265.342 242.97,262.009 245,258.5C 245.667,272.833 245.667,287.167 245,301.5C 244.283,302.044 243.783,302.711 243.5,303.5 Z"/></g>
<g><path style="opacity:1" fill="#f4f6f6" d="M 243.5,303.5 C 245.446,308.396 246.113,313.729 245.5,319.5C 240.393,319.956 235.726,318.956 231.5,316.5C 232.496,316.586 233.329,316.252 234,315.5C 236.65,311.025 239.817,307.025 243.5,303.5 Z"/></g>
<g><path style="opacity:1" fill="#eea586" d="M 400.5,347.5 C 401.5,347.5 402.5,347.5 403.5,347.5C 403.5,348.5 403.5,349.5 403.5,350.5C 400.001,351.1 396.501,351.766 393,352.5C 392.167,352.167 391.333,351.833 390.5,351.5C 393.298,350.031 396.298,349.198 399.5,349C 400.056,348.617 400.389,348.117 400.5,347.5 Z"/></g>
<g><path style="opacity:1" fill="#efa486" d="M 243.5,347.5 C 247.913,348.686 252.246,350.186 256.5,352C 252.789,352.439 249.122,352.106 245.5,351C 244.177,350.184 243.511,349.017 243.5,347.5 Z"/></g>
<g><path style="opacity:1" fill="#f79f82" d="M 239.5,357.5 C 242.58,358.517 245.58,359.684 248.5,361C 246.167,361.667 243.833,361.667 241.5,361C 240.027,360.29 239.36,359.124 239.5,357.5 Z"/></g>
<g><path style="opacity:1" fill="#f39e83" d="M 403.5,358.5 C 409.324,358.347 409.657,359.013 404.5,360.5C 402.167,361.833 399.833,361.833 397.5,360.5C 399.631,359.831 401.631,359.165 403.5,358.5 Z"/></g>
<g><path style="opacity:1" fill="#067172" d="M 245.5,376.5 C 297.488,380.319 349.488,380.319 401.5,376.5C 402.305,386.812 402.638,397.146 402.5,407.5C 402.5,411.5 402.5,415.5 402.5,419.5C 401.209,419.263 400.209,419.596 399.5,420.5C 347.163,424.447 294.83,424.447 242.5,420.5C 243.595,405.84 244.595,391.174 245.5,376.5 Z"/></g>
<g><path style="opacity:1" fill="#72a5a6" d="M 402.5,407.5 C 403.485,411.634 403.818,415.968 403.5,420.5C 402.167,420.5 400.833,420.5 399.5,420.5C 400.209,419.596 401.209,419.263 402.5,419.5C 402.5,415.5 402.5,411.5 402.5,407.5 Z"/></g>
<g><path style="opacity:1" fill="#1a7576" d="M 73.5,435.5 C 78.4645,434.975 82.1312,436.808 84.5,441C 83.9019,442.301 82.9019,443.135 81.5,443.5C 79.5263,439.83 76.5263,438.663 72.5,440C 68.2508,444.801 68.5841,449.134 73.5,453C 75.5,453.667 77.5,453.667 79.5,453C 80.9733,452.29 81.6399,451.124 81.5,449.5C 79.8333,449.5 78.1667,449.5 76.5,449.5C 76.5,448.167 76.5,446.833 76.5,445.5C 79.5,445.5 82.5,445.5 85.5,445.5C 85.7839,448.777 85.4505,451.943 84.5,455C 70.9557,460.325 64.789,455.825 66,441.5C 67.7074,438.41 70.2074,436.41 73.5,435.5 Z"/></g>
<g><path style="opacity:1" fill="#1d7677" d="M 152.5,435.5 C 153.833,435.5 155.167,435.5 156.5,435.5C 156.5,438.5 156.5,441.5 156.5,444.5C 159.5,444.5 162.5,444.5 165.5,444.5C 165.5,441.5 165.5,438.5 165.5,435.5C 166.833,435.5 168.167,435.5 169.5,435.5C 169.5,442.833 169.5,450.167 169.5,457.5C 168.167,457.5 166.833,457.5 165.5,457.5C 165.5,454.5 165.5,451.5 165.5,448.5C 162.5,448.5 159.5,448.5 156.5,448.5C 156.5,451.5 156.5,454.5 156.5,457.5C 155.167,457.5 153.833,457.5 152.5,457.5C 152.5,450.167 152.5,442.833 152.5,435.5 Z"/></g>
<g><path style="opacity:1" fill="#b3d4d5" d="M 239.5,435.5 C 244.833,435.5 250.167,435.5 255.5,435.5C 255.5,436.833 255.5,438.167 255.5,439.5C 251.5,439.5 247.5,439.5 243.5,439.5C 243.5,441.167 243.5,442.833 243.5,444.5C 247.167,444.5 250.833,444.5 254.5,444.5C 254.5,445.833 254.5,447.167 254.5,448.5C 250.833,448.5 247.167,448.5 243.5,448.5C 243.5,450.167 243.5,451.833 243.5,453.5C 247.5,453.5 251.5,453.5 255.5,453.5C 255.5,454.833 255.5,456.167 255.5,457.5C 250.167,457.5 244.833,457.5 239.5,457.5C 239.5,450.167 239.5,442.833 239.5,435.5 Z"/></g>
<g><path style="opacity:1" fill="#b6d5d6" d="M 294.5,435.5 C 295.833,435.5 297.167,435.5 298.5,435.5C 298.5,442.833 298.5,450.167 298.5,457.5C 297.167,457.5 295.833,457.5 294.5,457.5C 294.5,450.167 294.5,442.833 294.5,435.5 Z"/></g>
<g><path style="opacity:1" fill="#b5d5d6" d="M 369.5,435.5 C 378.44,434.28 383.44,438.113 384.5,447C 384.468,449.895 383.468,452.395 381.5,454.5C 384.429,455.649 384.929,457.315 383,459.5C 381.323,458.484 379.657,457.484 378,456.5C 366.284,458.445 361.617,453.445 364,441.5C 365.36,438.977 367.193,436.977 369.5,435.5 Z"/></g>
<g><path style="opacity:1" fill="#b7d6d7" d="M 440.5,437.5 C 441.5,437.5 442.5,437.5 443.5,437.5C 443.5,438.833 443.5,440.167 443.5,441.5C 444.5,441.5 445.5,441.5 446.5,441.5C 446.5,442.5 446.5,443.5 446.5,444.5C 445.5,444.5 444.5,444.5 443.5,444.5C 443.5,447.833 443.5,451.167 443.5,454.5C 444.5,454.5 445.5,454.5 446.5,454.5C 446.5,455.5 446.5,456.5 446.5,457.5C 443.956,457.896 441.789,457.229 440,455.5C 439.95,451.141 439.117,446.974 437.5,443C 438.848,441.317 439.848,439.483 440.5,437.5 Z"/></g>
<g><path style="opacity:1" fill="#f3f4f4" d="M 370.5,439.5 C 379.51,439.767 381.844,443.767 377.5,451.5C 375.2,449.169 373.534,449.336 372.5,452C 373.5,452.333 374.5,452.667 375.5,453C 368.917,453.401 366.417,450.235 368,443.5C 368.662,442.016 369.496,440.683 370.5,439.5 Z"/></g>
<g><path style="opacity:1" fill="#368081" d="M 88.5,441.5 C 90.451,441.227 91.951,441.893 93,443.5C 94.5553,441.485 96.3886,441.152 98.5,442.5C 97.3446,443.95 95.8446,444.95 94,445.5C 93.5012,449.486 93.3345,453.486 93.5,457.5C 91.8333,457.5 90.1667,457.5 88.5,457.5C 88.5,452.167 88.5,446.833 88.5,441.5 Z"/></g>
<g><path style="opacity:1" fill="#1a7576" d="M 104.5,441.5 C 111.063,441.067 114.396,444.067 114.5,450.5C 111.167,450.5 107.833,450.5 104.5,450.5C 104.843,454.438 106.843,455.438 110.5,453.5C 111.5,454 112.5,454.5 113.5,455C 109.83,458.139 105.997,458.306 102,455.5C 99.4246,450.034 100.258,445.367 104.5,441.5 Z"/></g>
<g><path style="opacity:1" fill="#177576" d="M 121.5,441.5 C 128.185,440.852 131.185,443.852 130.5,450.5C 127.102,450.18 123.768,450.513 120.5,451.5C 122.008,454.418 124.175,455.084 127,453.5C 128.067,454.191 129.234,454.691 130.5,455C 120.626,459.64 116.126,456.473 117,445.5C 118.397,443.93 119.897,442.596 121.5,441.5 Z"/></g>
<g><path style="opacity:1" fill="#217778" d="M 134.5,441.5 C 136.143,441.48 137.476,442.147 138.5,443.5C 141.903,440.801 145.07,441.134 148,444.5C 148.499,448.821 148.666,453.154 148.5,457.5C 147.167,457.5 145.833,457.5 144.5,457.5C 144.666,453.486 144.499,449.486 144,445.5C 142.333,444.167 140.667,444.167 139,445.5C 138.501,449.486 138.334,453.486 138.5,457.5C 137.167,457.5 135.833,457.5 134.5,457.5C 134.5,452.167 134.5,446.833 134.5,441.5 Z"/></g>
<g><path style="opacity:1" fill="#1a7576" d="M 177.5,441.5 C 184.063,441.067 187.396,444.067 187.5,450.5C 184.167,450.5 180.833,450.5 177.5,450.5C 177.843,454.438 179.843,455.438 183.5,453.5C 184.5,454 185.5,454.5 186.5,455C 182.83,458.139 178.997,458.306 175,455.5C 172.425,450.034 173.258,445.367 177.5,441.5 Z"/></g>
<g><path style="opacity:1" fill="#368081" d="M 190.5,441.5 C 192.451,441.227 193.951,441.893 195,443.5C 196.555,441.485 198.389,441.152 200.5,442.5C 199.345,443.95 197.845,444.95 196,445.5C 195.501,449.486 195.334,453.486 195.5,457.5C 193.833,457.5 192.167,457.5 190.5,457.5C 190.5,452.167 190.5,446.833 190.5,441.5 Z"/></g>
<g><path style="opacity:1" fill="#207778" d="M 207.5,441.5 C 216.361,441.889 219.195,446.222 216,454.5C 212.528,457.658 208.694,458.158 204.5,456C 199.882,449.848 200.882,445.014 207.5,441.5 Z"/></g>
<g><path style="opacity:1" fill="#408585" d="M 221.5,441.5 C 223.167,441.5 224.833,441.5 226.5,441.5C 226.5,442.833 226.5,444.167 226.5,445.5C 224.833,445.5 223.167,445.5 221.5,445.5C 221.5,444.167 221.5,442.833 221.5,441.5 Z"/></g>
<g><path style="opacity:1" fill="#b5d5d6" d="M 263.5,441.5 C 267.214,441.013 270.214,442.179 272.5,445C 271.234,445.309 270.067,445.809 269,446.5C 265.469,443.567 263.303,444.4 262.5,449C 262.971,454.6 265.471,455.766 270,452.5C 272.341,453.007 272.841,454.174 271.5,456C 261.635,459.16 257.468,455.66 259,445.5C 259.907,443.391 261.407,442.058 263.5,441.5 Z"/></g>
<g><path style="opacity:1" fill="#b6d5d6" d="M 279.5,441.5 C 287.685,440.196 291.518,443.53 291,451.5C 286.784,458.481 281.784,459.148 276,453.5C 274.593,448.643 275.76,444.643 279.5,441.5 Z"/></g>
<g><path style="opacity:1" fill="#b6d5d6" d="M 307.5,441.5 C 316.55,441.722 319.383,446.055 316,454.5C 312.528,457.658 308.694,458.158 304.5,456C 299.882,449.848 300.882,445.014 307.5,441.5 Z"/></g>
<g><path style="opacity:1" fill="#b6d6d6" d="M 323.5,441.5 C 326.272,441.22 328.772,441.887 331,443.5C 332.049,441.893 333.549,441.227 335.5,441.5C 335.666,447.509 335.499,453.509 335,459.5C 333.208,462.334 330.541,463.668 327,463.5C 323.958,463.63 321.791,462.297 320.5,459.5C 321.167,459.167 321.833,458.833 322.5,458.5C 324.915,460.216 327.582,460.716 330.5,460C 331.554,458.612 331.72,457.112 331,455.5C 324.215,458.853 320.715,456.686 320.5,449C 320.11,445.876 321.11,443.376 323.5,441.5 Z"/></g>
<g><path style="opacity:1" fill="#b5d5d6" d="M 337.5,441.5 C 338.978,441.238 340.311,441.571 341.5,442.5C 342.967,446.069 344.134,449.736 345,453.5C 346.477,449.57 347.644,445.57 348.5,441.5C 349.833,441.5 351.167,441.5 352.5,441.5C 350.572,448.282 348.239,454.949 345.5,461.5C 343.49,463.171 341.157,463.838 338.5,463.5C 338.5,462.5 338.5,461.5 338.5,460.5C 341.243,460.923 342.576,459.756 342.5,457C 341.127,451.714 339.46,446.548 337.5,441.5 Z"/></g>
<g><path style="opacity:1" fill="#b3d4d5" d="M 387.5,441.5 C 388.833,441.5 390.167,441.5 391.5,441.5C 391.334,445.514 391.501,449.514 392,453.5C 393.458,454.747 394.958,454.747 396.5,453.5C 397.491,449.555 397.824,445.555 397.5,441.5C 398.833,441.5 400.167,441.5 401.5,441.5C 401.5,446.833 401.5,452.167 401.5,457.5C 397.477,456.753 393.477,456.42 389.5,456.5C 388.749,455.624 388.249,454.624 388,453.5C 387.501,449.514 387.334,445.514 387.5,441.5 Z"/></g>
<g><path style="opacity:1" fill="#bad8d9" d="M 409.5,441.5 C 416.063,441.067 419.396,444.067 419.5,450.5C 416.167,450.5 412.833,450.5 409.5,450.5C 409.843,454.438 411.843,455.438 415.5,453.5C 416.5,454 417.5,454.5 418.5,455C 408.461,459.979 404.295,456.813 406,445.5C 406.69,443.65 407.856,442.316 409.5,441.5 Z"/></g>
<g><path style="opacity:1" fill="#b6d5d6" d="M 424.5,441.5 C 428.007,440.994 431.174,441.66 434,443.5C 434.27,444.932 433.604,445.932 432,446.5C 430.116,444.424 427.949,444.09 425.5,445.5C 428.44,447.437 431.606,449.104 435,450.5C 435.825,452.701 435.325,454.534 433.5,456C 428.899,458.487 424.899,457.82 421.5,454C 422.108,453.13 422.941,452.63 424,452.5C 425.396,453.394 426.896,454.061 428.5,454.5C 430,454.547 431,453.881 431.5,452.5C 428.044,451.843 424.878,450.51 422,448.5C 421.333,447.167 421.333,445.833 422,444.5C 423.045,443.627 423.878,442.627 424.5,441.5 Z"/></g>
<g><path style="opacity:1" fill="#eaeeee" d="M 105.5,444.5 C 107.665,444.116 109.332,444.783 110.5,446.5C 108.5,447.833 106.5,447.833 104.5,446.5C 104.863,445.817 105.196,445.15 105.5,444.5 Z"/></g>
<g><path style="opacity:1" fill="#e8eded" d="M 121.5,444.5 C 123.665,444.116 125.332,444.783 126.5,446.5C 124.5,447.833 122.5,447.833 120.5,446.5C 120.863,445.817 121.196,445.15 121.5,444.5 Z"/></g>
<g><path style="opacity:1" fill="#eaeeee" d="M 178.5,444.5 C 180.665,444.116 182.332,444.783 183.5,446.5C 181.5,447.833 179.5,447.833 177.5,446.5C 177.863,445.817 178.196,445.15 178.5,444.5 Z"/></g>
<g><path style="opacity:1" fill="#eaeeee" d="M 207.5,444.5 C 212.989,444.504 214.822,447.171 213,452.5C 210.16,455.371 207.826,455.037 206,451.5C 205.167,448.829 205.667,446.496 207.5,444.5 Z"/></g>
<g><path style="opacity:1" fill="#f2f4f4" d="M 281.5,444.5 C 287.548,445.46 288.881,448.627 285.5,454C 280.008,454.486 278.175,451.986 280,446.5C 280.717,445.956 281.217,445.289 281.5,444.5 Z"/></g>
<g><path style="opacity:1" fill="#f2f4f4" d="M 307.5,444.5 C 312.989,444.504 314.822,447.171 313,452.5C 310.16,455.371 307.826,455.037 306,451.5C 305.167,448.829 305.667,446.496 307.5,444.5 Z"/></g>
<g><path style="opacity:1" fill="#f4f5f5" d="M 326.5,444.5 C 331.151,445.174 332.651,447.841 331,452.5C 327.182,455.498 325.016,454.498 324.5,449.5C 324.437,447.486 325.103,445.819 326.5,444.5 Z"/></g>
<g><path style="opacity:1" fill="#408585" d="M 221.5,453.5 C 223.167,453.5 224.833,453.5 226.5,453.5C 226.5,454.833 226.5,456.167 226.5,457.5C 224.833,457.5 223.167,457.5 221.5,457.5C 221.5,456.167 221.5,454.833 221.5,453.5 Z"/></g>
</svg>
